<?xml version="1.0" encoding="UTF-8" standalone="no"?>
<!-- Generator: Adobe Illustrator 21.1.0, SVG Export Plug-In . SVG Version: 6.00 Build 0)  -->

<svg
   xmlns:dc="http://purl.org/dc/elements/1.1/"
   xmlns:cc="http://creativecommons.org/ns#"
   xmlns:rdf="http://www.w3.org/1999/02/22-rdf-syntax-ns#"
   xmlns:svg="http://www.w3.org/2000/svg"
   xmlns="http://www.w3.org/2000/svg"
   xmlns:sodipodi="http://sodipodi.sourceforge.net/DTD/sodipodi-0.dtd"
   xmlns:inkscape="http://www.inkscape.org/namespaces/inkscape"
   version="1.1"
   id="Layer_1"
   x="0px"
   y="0px"
   viewBox="0 0 128 128"
   style="enable-background:new 0 0 128 128;"
   xml:space="preserve"
   width="64px"
   height="64px"
   sodipodi:docname="menu-active.svg"
   inkscape:version="0.92.4 (5da689c313, 2019-01-14)"><metadata
   id="metadata29"><rdf:RDF><cc:Work
       rdf:about=""><dc:format>image/svg+xml</dc:format><dc:type
         rdf:resource="http://purl.org/dc/dcmitype/StillImage" /><dc:title></dc:title></cc:Work></rdf:RDF></metadata><defs
   id="defs27">
	
	
</defs><sodipodi:namedview
   pagecolor="#ffffff"
   bordercolor="#666666"
   borderopacity="1"
   objecttolerance="10"
   gridtolerance="10"
   guidetolerance="10"
   inkscape:pageopacity="0"
   inkscape:pageshadow="2"
   inkscape:window-width="1920"
   inkscape:window-height="1001"
   id="namedview25"
   showgrid="false"
   inkscape:zoom="3.6875"
   inkscape:cx="-20.067797"
   inkscape:cy="32"
   inkscape:window-x="-9"
   inkscape:window-y="-9"
   inkscape:window-maximized="1"
   inkscape:current-layer="Layer_1" />

<g
   id="g8"
   transform="matrix(1.2075472,0,0,1.2075472,-13.283019,-13.283019)"
   style="fill:#dcdcdc;fill-opacity:1">
		<path
   inkscape:connector-curvature="0"
   id="path6"
   style="fill:#dcdcdc;fill-opacity:1"
   d="M 64,117 C 34.8,117 11,93.2 11,64 11,34.8 34.8,11 64,11 c 29.2,0 53,23.8 53,53 0,29.2 -23.8,53 -53,53 z M 64,17 c -25.9,0 -47,21.1 -47,47 0,25.9 21.1,47 47,47 25.9,0 47,-21.1 47,-47 C 111,38.1 89.9,17 64,17 Z" />
	</g>
<g
   id="g14"
   transform="matrix(1.2075472,0,0,1.2075472,-13.283019,-13.283019)"
   style="fill:#dcdcdc;fill-opacity:1">
	<path
   d="m 86.5,52 h -45 c -1.7,0 -3,-1.3 -3,-3 0,-1.7 1.3,-3 3,-3 h 45 c 1.7,0 3,1.3 3,3 0,1.7 -1.3,3 -3,3 z"
   style="fill:#dcdcdc;fill-opacity:1"
   id="path12"
   inkscape:connector-curvature="0" />
</g>
<g
   id="g18"
   transform="matrix(1.2075472,0,0,1.2075472,-13.283019,-13.283019)"
   style="fill:#dcdcdc;fill-opacity:1">
	<path
   d="m 86.5,67 h -45 c -1.7,0 -3,-1.3 -3,-3 0,-1.7 1.3,-3 3,-3 h 45 c 1.7,0 3,1.3 3,3 0,1.7 -1.3,3 -3,3 z"
   style="fill:#dcdcdc;fill-opacity:1"
   id="path16"
   inkscape:connector-curvature="0" />
</g>
<g
   id="g22"
   transform="matrix(1.2075472,0,0,1.2075472,-13.283019,-13.283019)"
   style="fill:#dcdcdc;fill-opacity:1">
	<path
   d="m 86.5,82 h -45 c -1.7,0 -3,-1.3 -3,-3 0,-1.7 1.3,-3 3,-3 h 45 c 1.7,0 3,1.3 3,3 0,1.7 -1.3,3 -3,3 z"
   style="fill:#dcdcdc;fill-opacity:1"
   id="path20"
   inkscape:connector-curvature="0" />
</g>
</svg>